<?xml version="1.0" standalone="no"?>
<!DOCTYPE svg PUBLIC "-//W3C//DTD SVG 20010904//EN"
 "http://www.w3.org/TR/2001/REC-SVG-20010904/DTD/svg10.dtd">
<svg version="1.0" xmlns="http://www.w3.org/2000/svg"
 width="468.000000pt" height="219.000000pt" viewBox="0 0 468.000000 219.000000"
 preserveAspectRatio="xMidYMid meet">

<g transform="translate(0.000000,219.000000) scale(0.100000,-0.100000)"
fill="#000000" stroke="none">
<path d="M677 1473 c-4 -3 -7 -163 -7 -355 l0 -348 75 0 75 0 0 135 0 135 160
0 160 0 0 65 0 65 -160 0 -160 0 0 85 0 85 160 0 160 0 0 70 0 70 -228 0
c-126 0 -232 -3 -235 -7z"/>
<path d="M3116 1138 c-71 -189 -132 -349 -134 -355 -3 -10 15 -13 71 -13 l74
0 28 75 27 76 126 -3 125 -3 25 -72 26 -73 73 0 c40 0 73 3 73 7 0 4 -59 164
-132 355 l-132 348 -61 0 -60 0 -129 -342z m239 -14 c13 -34 21 -65 18 -68 -9
-9 -131 -7 -136 2 -2 4 12 50 32 102 l35 94 14 -34 c7 -18 24 -62 37 -96z"/>
<path d="M3773 1267 l-63 -21 0 -243 0 -243 70 0 70 0 0 265 c0 146 -3 265 -7
264 -5 0 -36 -10 -70 -22z"/>
<path d="M1374 1269 c-18 -5 -54 -24 -80 -41 -135 -91 -146 -296 -21 -403 137
-118 353 -62 412 106 69 194 -116 395 -311 338z m151 -159 c71 -67 43 -182
-50 -206 -84 -22 -155 36 -155 127 0 23 10 42 40 71 38 39 42 40 90 36 34 -4
59 -13 75 -28z"/>
<path d="M1975 1256 c-62 -30 -117 -86 -147 -151 -19 -42 -23 -72 -26 -192
l-4 -143 71 0 71 0 0 125 c0 172 22 217 121 247 l39 11 0 64 0 63 -37 0 c-21
0 -60 -11 -88 -24z"/>
<path d="M2180 1025 l0 -255 65 0 65 0 0 145 c0 163 9 196 58 213 35 12 85 -6
101 -37 7 -11 11 -82 11 -170 l0 -151 70 0 70 0 0 158 c0 153 1 159 23 180 34
32 89 30 116 -4 19 -24 21 -40 21 -180 l0 -154 70 0 70 0 0 148 c0 184 -12
233 -73 289 -74 69 -177 80 -262 29 l-39 -24 -40 27 c-34 23 -49 26 -118 25
-43 0 -78 3 -78 8 0 4 -29 8 -65 8 l-65 0 0 -255z"/>
</g>
</svg>
